<svg width="429.00000000000006" height="65.68168080995314" viewBox="0 0 343.9171871675097 52.65514898040392"
    class="looka-1j8o68f" xmlns="http://www.w3.org/2000/svg">
    <defs id="SvgjsDefs2315"></defs>
    <g id="SvgjsG2316" featurekey="HKaMnE-0"
        transform="matrix(0.6501954638165593,0,0,0.6501954638165593,-4.191160024249312,9.330933771810074)"
        fill="#a6acec">
        <g xmlns="http://www.w3.org/2000/svg">
            <path
                d="M35.318,41.017H6.446l6.451,4.253l23.108-2.02c0.143-0.013,0.269,0.089,0.288,0.23c0.02,0.142-0.076,0.272-0.216,0.298l-20.146,3.71l4.98,3.646l18.053-4.135C37.456,45.225,36.24,43.232,35.318,41.017z">
            </path>
            <path
                d="M29.096,57.131l0.118,0.085c1.708,1.178,3.626,1.765,5.772,1.766c3.687,0.002,8.068-1.763,13.115-5.323c-1.408-0.632-2.72-1.334-3.93-2.124L29.096,57.131z">
            </path>
            <path d="M40.172,48.318L23.1,52.74l4.011,2.944l15.573-5.187C41.782,49.816,40.944,49.092,40.172,48.318z">
            </path>
            <path
                d="M63.996,43.25l23.108,2.02l6.451-4.253H64.682c-0.923,2.215-2.139,4.208-3.645,5.982l18.053,4.135l4.981-3.646l-20.147-3.71c-0.14-0.026-0.236-0.157-0.216-0.298C63.727,43.338,63.853,43.237,63.996,43.25z">
            </path>
            <path
                d="M51.899,53.66c5.047,3.561,9.428,5.326,13.115,5.323c2.146-0.001,4.064-0.589,5.772-1.766l0.118-0.085l-15.075-5.595C54.619,52.326,53.306,53.028,51.899,53.66z">
            </path>
            <path d="M57.316,50.496l15.573,5.187L76.9,52.74l-17.072-4.422C59.056,49.092,58.218,49.816,57.316,50.496z">
            </path>
        </g>
    </g>
    <g id="SvgjsG2317" featurekey="nameLeftFeature-0"
        transform="matrix(1.588720099353068,0,0,1.588720099353068,75.41128084759791,18.688314589542298)" fill="#a56cc1">
        <path
            d="M9.16 21.38 c-0.08 0 -0.18 -0.06 -0.22 -0.14 l-0.6 -1.24 c-0.28 0.04 -0.58 0.06 -0.9 0.06 c-1.18 0 -2.28 -0.3 -3.26 -0.86 s-1.76 -1.34 -2.32 -2.32 s-0.86 -2.08 -0.86 -3.28 s0.3 -2.3 0.86 -3.28 s1.34 -1.74 2.3 -2.3 c0.98 -0.56 2.08 -0.84 3.28 -0.84 s2.3 0.28 3.28 0.84 c0.96 0.56 1.76 1.32 2.32 2.3 s0.84 2.08 0.84 3.28 c0 1.18 -0.28 2.3 -0.84 3.28 c-0.46 0.78 -1.04 1.42 -1.74 1.94 l1 2.14 c0.04 0.04 0.08 0.1 0.08 0.16 c0 0.14 -0.12 0.26 -0.26 0.26 l-2.96 0 z M7 17.14 l-0.8 -1.68 c-0.04 -0.04 -0.06 -0.1 -0.06 -0.16 c0 -0.14 0.12 -0.26 0.26 -0.26 l2.94 0 c0.1 0 0.18 0.06 0.24 0.14 l0.36 0.76 c0.12 -0.16 0.22 -0.34 0.32 -0.52 c0.3 -0.54 0.44 -1.16 0.44 -1.82 s-0.14 -1.26 -0.44 -1.8 c-0.28 -0.54 -0.68 -0.98 -1.18 -1.28 c-0.48 -0.32 -1.02 -0.46 -1.6 -0.46 s-1.14 0.14 -1.64 0.46 c-0.52 0.32 -0.92 0.74 -1.22 1.28 c-0.28 0.54 -0.44 1.14 -0.44 1.8 s0.16 1.26 0.46 1.8 s0.7 0.98 1.2 1.3 c0.36 0.22 0.76 0.38 1.16 0.44 z M21.1 20 c-1.08 0 -1.86 -0.22 -2.68 -0.66 c-0.8 -0.44 -1.44 -1.06 -1.88 -1.88 c-0.44 -0.8 -0.66 -1.76 -0.66 -2.86 l0 -7.04 c0 -0.14 0.12 -0.24 0.26 -0.24 l2.6 0 c0.14 0 0.24 0.1 0.24 0.24 l0 7.04 c0 0.8 0.22 1.42 0.64 1.86 s0.8 0.66 1.5 0.66 s1.06 -0.22 1.46 -0.64 c0.4 -0.44 0.6 -1.08 0.6 -1.88 l0 -7.04 c0 -0.14 0.12 -0.24 0.26 -0.24 l2.6 0 c0.14 0 0.26 0.1 0.26 0.24 l0 7.04 c0 1.1 -0.22 2.06 -0.66 2.86 c-0.42 0.82 -1.06 1.44 -1.86 1.88 s-1.6 0.66 -2.68 0.66 z M28.560000000000002 20 c-0.14 0 -0.26 -0.12 -0.26 -0.26 l0 -11.98 c0 -0.14 0.12 -0.26 0.26 -0.26 l2.6 0 c0.14 0 0.26 0.12 0.26 0.26 l0 11.98 c0 0.14 -0.12 0.26 -0.26 0.26 l-2.6 0 z M39.72 20 c-1.18 0 -2.26 -0.28 -3.22 -0.84 c-0.96 -0.58 -1.72 -1.36 -2.26 -2.34 s-0.82 -2.08 -0.82 -3.3 c0 -1.18 0.28 -2.28 0.84 -3.26 c0.56 -0.96 1.34 -1.74 2.3 -2.3 c0.98 -0.56 2.08 -0.84 3.24 -0.84 c0.88 0 1.74 0.2 2.58 0.56 c0.84 0.38 1.56 0.88 2.16 1.52 c0.08 0.1 0.08 0.24 0 0.34 l-1.9 1.56 c-0.06 0.06 -0.12 0.1 -0.2 0.1 s-0.16 -0.04 -0.2 -0.1 c-1.02 -1.24 -2.66 -1.5 -4.04 -0.64 c-1.2 0.74 -1.64 2.1 -1.58 3.46 c0.06 1.38 1.06 2.56 2.38 2.96 c1.2 0.36 2.38 0.08 3.24 -0.84 c0.06 -0.04 0.12 -0.08 0.2 -0.06 c0.08 0 0.14 0.02 0.18 0.08 l1.94 1.36 c0.08 0.1 0.08 0.24 0 0.34 c-0.64 0.68 -1.4 1.24 -2.24 1.64 c-0.86 0.4 -1.74 0.6 -2.6 0.6 z M46.88 20 c-0.14 0 -0.26 -0.12 -0.26 -0.26 l0 -11.98 c0 -0.14 0.12 -0.26 0.26 -0.26 l2.6 0 c0.14 0 0.26 0.12 0.26 0.26 l0 3.54 l3.62 -3.72 c0.06 -0.04 0.12 -0.08 0.2 -0.08 l3.02 0 c0.1 0 0.2 0.06 0.24 0.14 c0.04 0.1 0.02 0.2 -0.04 0.28 l-4.04 4.32 l4.5 7.34 c0.04 0.04 0.06 0.1 0.06 0.16 c0 0.14 -0.12 0.26 -0.26 0.26 l-3.12 0 c-0.08 0 -0.16 -0.04 -0.2 -0.12 l-3.3 -5.58 l-0.68 0.6 l0 4.84 c0 0.14 -0.12 0.26 -0.26 0.26 l-2.6 0 z ">
        </path>
    </g>
    <g id="SvgjsG2318" featurekey="nameRightFeature-0"
        transform="matrix(1.583545433372113,0,0,1.583545433372113,173.3763915811798,20.690413120725815)" fill="#a56cc1">
        <path
            d="M8.0566 20.18555 c-4.0039 0 -7.0313 -2.7344 -7.0313 -7.1582 c0 -4.4043 3.0273 -7.1484 7.0313 -7.1484 c2.9297 0 5.332 1.4844 6.377 3.9746 l-2.1777 0.83008 c-0.72266 -1.6699 -2.3047 -2.627 -4.1992 -2.627 c-2.6367 0 -4.6973 1.8359 -4.6973 4.9707 c0 3.1543 2.0605 4.9805 4.6973 4.9805 c1.8945 0 3.4766 -0.94727 4.1992 -2.6172 l2.1777 0.83008 c-1.0449 2.4902 -3.4473 3.9648 -6.377 3.9648 z M23.19331875 20.18555 c-4.0039 0 -7.0313 -2.7441 -7.0313 -7.1582 c0 -4.4043 3.0273 -7.1484 7.0313 -7.1484 c3.9941 0 7.0215 2.7441 7.0215 7.1484 c0 4.4141 -3.0273 7.1582 -7.0215 7.1582 z M23.19331875 18.0176 c2.6367 0 4.6973 -1.8262 4.6973 -4.9902 c0 -3.1348 -2.0605 -4.9707 -4.6973 -4.9707 s-4.6973 1.8359 -4.6973 4.9707 c0 3.1641 2.0605 4.9902 4.6973 4.9902 z M48.604 20 l-2.3145 0 l-0.91797 -10.996 l-3.9941 10.996 l-1.4648 0 l-3.9746 -10.977 l-0.92773 10.977 l-2.3242 0 l1.1133 -13.926 l3.252 0 l3.584 9.8438 l3.6133 -9.8438 l3.252 0 z M61.172062499999996 20 l-1.1035 -3.0957 l-6.084 0 l-1.0938 3.0957 l-2.4121 0 l5.127 -13.926 l2.8418 0 l5.127 13.926 l-2.4023 0 z M54.6972625 14.9023 l4.668 0 l-2.334 -6.582 z M75.4494375 6.074 l2.334 0 l0 13.926 l-2.6172 0 l-6.8359 -10.625 l0 10.625 l-2.3145 0 l0 -13.926 l2.5879 0 l6.8457 10.557 l0 -10.557 z M81.767590625 20 l0 -13.926 l4.7656 0 c4.3555 0 6.543 2.832 6.543 6.9531 c0 4.1309 -2.1875 6.9727 -6.543 6.9727 l-4.7656 0 z M84.101590625 17.9102 l2.334 0 c2.8516 0 4.1895 -1.8457 4.1895 -4.8828 c0 -3.0176 -1.3379 -4.873 -4.1895 -4.873 l-2.334 0 l0 9.7559 z M105.29315625 20 l-1.1035 -3.0957 l-6.084 0 l-1.0938 3.0957 l-2.4121 0 l5.127 -13.926 l2.8418 0 l5.127 13.926 l-2.4023 0 z M98.81835625 14.9023 l4.668 0 l-2.334 -6.582 z">
        </path>
    </g>
</svg>